<svg version="1.1" xmlns="http://www.w3.org/2000/svg" viewBox="-2244.351834487915 -3783.9362121582026 7214.59189453125 5704.192321777343"><desc>Created with Snap</desc><defs></defs><g><g transform="matrix(26.5995,0,0,26.5995,32.9685,-3609.7338)"><g><path d="M78.4,66.5c-5.5,4.8-9.9,15.2-9.9,15.2s-6.9-11.4-12.9-15.3c-9.5-6.1-13.6-6.2-13.6-6.2V65c0,0,7.8,1.2,11.7,4.6   c8.2,7.1,14.8,18.5,14.8,18.5S74.4,75,80.1,70.5C88.1,64.3,95,65,95,65v-4.8C95,60.1,85.1,60.7,78.4,66.5z" fill="#6daedb" style=""></path><path d="M42,80c-6.4-3.6-17.8-4.3-17.8-4.3s8.7-10.1,10.5-17C37.5,47.9,36.2,44,36.2,44l-4.6,1.6c0,0,1.3,7.7-0.6,12.4   c-4.1,9.9-13,19.8-13,19.8s14.6,1.3,20.7,5.1c8.6,5.4,10.2,12,10.2,12l4.6-1.6C53.5,93.4,49.7,84.4,42,80z" fill="#6daedb" style=""></path><path d="M35.3,36.8c11.3-0.9,14.6-3.4,14.6-3.4l-3-3.8c0,0-6.9,3.7-12.1,3.4c-10.9-0.6-23.3-5.6-23.3-5.6s3.5,14,1.8,20.9   C10.9,58.2,5,61.8,5,61.8l3,3.8c0,0,7.5-6.5,9.1-15.1c1.3-7.1-1.7-18-1.7-18S28,37.4,35.3,36.8z" fill="#6daedb" style=""></path><path d="M37.4,17.8c7.3-1.1,16.7-7.4,16.7-7.4s-0.6,13.2,2.4,19.8c4.6,10.2,8,12.5,8,12.5l2.7-4c0,0-5.9-5.2-7.3-10.2   C56.9,18.2,57.7,5,57.7,5s-12.3,7.8-19.5,8.5c-10.2,1-15.6-3.3-15.6-3.3l-2.7,4.1C19.9,14.2,28.6,19.1,37.4,17.8z" fill="#6daedb" style=""></path><path d="M65,60.5c0,0,3.1-7.2,7.4-10.1c9-6.1,21.9-9.7,21.9-9.7s-11.5-8.9-14.5-15.4c-4.2-9.1-1.9-15.6-1.9-15.6l-4.8-1.2   c0,0-1.9,9.6,2.2,17.4c3.4,6.4,12.5,13.2,12.5,13.2S75,42.9,69.6,47.8c-8.3,7.6-9.4,11.5-9.4,11.5L65,60.5z" fill="#6daedb" style=""></path></g><desc>Created with Snap</desc><defs></defs></g><g><g transform="matrix(1.024,0,0,-1.024,0,0)"><path d="M156 506L156 13Q156 3 148 -4Q140 -10 129 -10Q118 -10 110 -4Q102 3 102 13L102 561L47 561Q36 561 28 568Q20 575 20 585Q20 595 27 601Q35 608 47 608L125 608Q141 608 150 598L542 94L542 561L483 561Q473 561 466 567Q460 574 460 584Q460 594 466 601Q473 608 483 608L655 608Q665 608 671 601Q678 594 678 584Q678 574 671 567Q665 561 655 561L596 561L596 16Q596 -10 570 -10Q556 -10 546 4L156 506ZM1012 136L1012 155Q946 173 899 173Q853 173 823 155Q794 137 794 104Q794 72 813 54Q832 36 865 36Q957 36 1012 136ZM1092 47L1131 47Q1141 47 1147 40Q1154 33 1154 23Q1154 13 1147 6Q1141 0 1131 0L1087 0Q1051 0 1031 16Q1012 32 1012 61Q1012 66 1013 72Q960 -10 859 -10Q803 -10 771 20Q740 50 740 103Q740 157 782 187Q825 218 888 218Q952 218 1012 197L1012 266Q1012 314 977 328Q950 338 902 338Q855 338 815 322L815 259Q815 249 807 242Q799 236 788 236Q777 236 769 242Q761 249 761 259L761 335Q761 348 774 355Q823 384 904 384Q985 384 1025 357Q1065 331 1065 266L1065 66Q1065 47 1092 47ZM1368 338Q1311 338 1277 297Q1243 256 1243 186Q1243 116 1276 76Q1310 36 1368 36Q1452 36 1502 131L1502 278Q1476 303 1439 320Q1403 338 1368 338ZM1502 331L1502 703L1436 703Q1426 703 1419 709Q1413 716 1413 726Q1413 736 1419 743Q1426 750 1436 750L1529 750Q1540 750 1548 743Q1556 736 1556 726L1556 66Q1556 47 1576 47L1622 47Q1632 47 1638 40Q1645 34 1645 24Q1645 14 1638 7Q1632 0 1622 0L1569 0Q1504 0 1506 71Q1484 37 1448 13Q1413 -10 1368 -10Q1279 -10 1234 47Q1190 104 1190 188Q1190 272 1236 328Q1283 384 1364 384Q1445 384 1502 331ZM1803 351L1803 13Q1803 3 1795 -4Q1787 -10 1776 -10Q1765 -10 1757 -4Q1749 3 1749 13L1749 327L1683 327Q1673 327 1666 333Q1660 340 1660 350Q1660 360 1666 367Q1673 374 1683 374L1780 374Q1803 374 1803 351ZM1747 524Q1738 534 1738 548Q1738 562 1747 572Q1756 582 1772 582Q1788 582 1797 572Q1807 562 1807 548Q1807 534 1797 524Q1788 514 1772 514Q1756 514 1747 524ZM1899 -226Q1888 -229 1880 -229Q1872 -229 1865 -223Q1859 -217 1859 -207Q1859 -189 1882 -183Q1934 -167 1954 -124Q1974 -80 1974 -6L1974 327L1913 327Q1903 327 1896 333Q1890 340 1890 350Q1890 360 1896 367Q1903 374 1913 374L1974 374L1974 600Q1974 687 2010 723Q2047 760 2123 760Q2199 760 2253 727Q2265 720 2265 709L2265 623Q2265 613 2257 606Q2249 600 2238 600Q2227 600 2219 606Q2211 613 2211 623L2211 698Q2176 714 2124 714Q2072 714 2049 687Q2027 661 2027 599L2027 374L2201 374Q2211 374 2217 367Q2224 360 2224 350Q2224 340 2217 333Q2211 327 2201 327L2027 327L2027 -6Q2027 -95 2000 -148Q1973 -201 1899 -226ZM2223 -180L2255 -183Q2304 -183 2335 -142Q2359 -111 2388 -51L2422 19L2259 349Q2255 358 2259 367Q2264 376 2273 380Q2283 385 2292 385Q2302 385 2309 370L2450 74L2591 370Q2598 385 2607 385Q2631 385 2640 367Q2642 362 2642 357Q2642 353 2640 349L2436 -71Q2417 -111 2405 -131Q2394 -150 2372 -178Q2329 -229 2254 -229Q2233 -229 2222 -226Q2200 -221 2203 -201Q2206 -180 2223 -180Z" fill="#173753" style=""></path></g></g><g transform="matrix(0.75,0,0,0.75,-1963.2638,1263.6161)"><g transform="matrix(1.024,0,0,-1.024,0,0)"><path d="M327 -8Q194 -8 114 42Q34 93 34 197Q34 252 53 281Q72 310 109 310Q136 310 153 296Q170 282 170 260Q170 240 167 225Q167 221 165 211Q164 201 164 190Q164 145 209 123Q255 101 337 101Q422 101 470 131Q518 162 518 217Q518 251 496 275Q474 300 441 316Q408 333 348 357Q271 387 222 414Q174 441 139 487Q105 534 105 603Q105 675 143 731Q182 787 254 818Q327 849 425 849Q498 849 559 827Q620 806 656 762Q693 718 693 654Q693 591 674 559Q655 527 618 527Q592 527 574 543Q557 559 557 581Q557 600 560 616Q563 646 563 654Q563 696 522 718Q481 740 420 740Q334 740 288 708Q243 677 243 620Q243 582 266 555Q290 528 325 510Q360 492 423 467Q499 436 545 411Q591 386 623 343Q656 300 656 237Q656 119 566 55Q477 -8 327 -8ZM1296 223Q1309 223 1316 211Q1324 199 1324 178Q1324 138 1305 116Q1259 63 1210 29Q1162 -5 1100 -5Q1049 -5 1023 24Q997 54 997 110Q997 138 1011 210Q1024 273 1024 297Q1024 313 1013 313Q1000 313 976 279Q952 246 928 191Q904 136 889 75Q870 -5 795 -5Q765 -5 755 16Q746 38 746 94Q746 126 747 145L748 225Q748 379 779 546Q811 713 872 826Q934 940 1020 940Q1066 940 1094 900Q1123 861 1123 798Q1123 697 1064 588Q1005 480 872 335Q869 283 869 228Q902 313 942 366Q983 420 1022 443Q1062 466 1095 466Q1160 466 1160 401Q1160 362 1138 260Q1119 173 1119 145Q1119 105 1148 105Q1168 105 1195 129Q1223 154 1269 209Q1281 223 1296 223ZM999 841Q981 841 959 789Q937 738 916 650Q896 563 883 460Q945 533 985 619Q1026 705 1026 775Q1026 807 1019 824Q1012 841 999 841ZM1366 -5Q1304 -5 1267 40Q1230 85 1230 158Q1230 238 1267 309Q1304 381 1365 424Q1427 468 1496 468Q1518 468 1525 459Q1533 451 1538 429Q1559 433 1582 433Q1631 433 1631 398Q1631 377 1616 298Q1593 183 1593 138Q1593 123 1600 114Q1608 105 1620 105Q1639 105 1666 129Q1693 154 1739 209Q1751 223 1766 223Q1779 223 1786 211Q1794 199 1794 178Q1794 138 1775 116Q1734 65 1688 30Q1642 -5 1599 -5Q1566 -5 1538 17Q1511 40 1497 79Q1445 -5 1366 -5ZM1402 96Q1424 96 1444 122Q1464 148 1473 191L1510 375Q1468 374 1432 343Q1397 313 1376 263Q1355 213 1355 157Q1355 126 1367 111Q1380 96 1402 96ZM1784 -5Q1746 -5 1730 35Q1715 75 1715 163Q1715 293 1752 410Q1761 439 1781 452Q1802 466 1839 466Q1859 466 1867 461Q1875 456 1875 442Q1875 426 1860 370Q1850 330 1844 300Q1838 270 1834 226Q1867 312 1908 366Q1949 420 1988 443Q2028 466 2061 466Q2126 466 2126 401Q2126 388 2117 338Q2109 298 2109 288Q2109 253 2134 253Q2162 253 2206 297Q2219 310 2233 310Q2246 310 2253 298Q2261 287 2261 268Q2261 231 2241 210Q2213 181 2175 160Q2138 140 2096 140Q2043 140 2015 167Q1988 194 1988 240Q1988 255 1991 270Q1993 290 1993 297Q1993 313 1982 313Q1967 313 1942 279Q1918 246 1894 191Q1870 136 1855 75Q1844 28 1829 11Q1815 -5 1784 -5ZM2614 223Q2627 223 2634 211Q2642 199 2642 178Q2642 138 2623 116Q2586 71 2518 33Q2451 -5 2374 -5Q2269 -5 2211 52Q2153 109 2153 208Q2153 277 2182 336Q2211 396 2262 431Q2314 466 2379 466Q2437 466 2472 431Q2507 397 2507 338Q2507 269 2457 219Q2408 170 2290 141Q2315 95 2385 95Q2430 95 2487 126Q2545 158 2587 209Q2599 223 2614 223ZM2362 368Q2325 368 2299 325Q2274 282 2274 221L2274 219Q2333 233 2367 261Q2401 289 2401 326Q2401 345 2390 356Q2380 368 2362 368ZM3338 221Q3351 221 3358 208Q3366 196 3366 177Q3366 154 3359 141Q3352 128 3337 118L3145 -11Q3107 -218 3045 -337Q2984 -455 2889 -455Q2838 -455 2806 -424Q2774 -392 2774 -341Q2774 -294 2795 -245Q2817 -196 2875 -133Q2934 -69 3041 13L3044 36Q3051 73 3060 142Q3040 70 3004 32Q2968 -5 2928 -5Q2883 -5 2854 36Q2826 78 2826 140Q2826 215 2836 277Q2846 340 2869 410Q2879 440 2897 453Q2915 466 2954 466Q2976 466 2984 459Q2993 452 2993 438Q2993 430 2982 384Q2972 347 2966 317Q2958 276 2952 238Q2946 201 2946 177Q2946 139 2967 139Q2982 139 3004 169Q3027 199 3052 260Q3078 321 3102 410Q3110 440 3126 453Q3143 466 3176 466Q3199 466 3208 460Q3217 454 3217 440Q3217 415 3191 268L3165 107Q3242 165 3315 213Q3328 221 3338 221ZM2900 -358Q2925 -358 2956 -300Q2987 -242 3018 -107Q2941 -172 2906 -226Q2872 -279 2872 -319Q2872 -336 2878 -347Q2885 -358 2900 -358ZM3815 307Q3828 307 3835 294Q3842 281 3842 261Q3842 213 3813 204Q3753 183 3681 180Q3662 96 3606 45Q3550 -5 3479 -5Q3419 -5 3376 24Q3334 53 3312 101Q3290 149 3290 205Q3290 281 3319 340Q3348 400 3399 433Q3450 467 3512 467Q3588 467 3634 414Q3681 362 3689 285Q3736 288 3801 305Q3809 307 3815 307ZM3487 101Q3519 101 3542 127Q3566 153 3574 202Q3543 223 3526 257Q3510 291 3510 329Q3510 345 3513 361L3508 361Q3468 361 3441 322Q3415 284 3415 214Q3415 159 3436 130Q3458 101 3487 101ZM3858 -5Q3813 -5 3784 36Q3756 78 3756 140Q3756 215 3766 277Q3776 340 3799 410Q3809 440 3827 453Q3845 466 3884 466Q3906 466 3914 459Q3923 452 3923 438Q3923 430 3912 384Q3902 347 3896 317Q3876 212 3876 177Q3876 156 3881 147Q3886 139 3897 139Q3912 139 3934 169Q3957 199 3982 260Q4008 321 4032 410Q4040 440 4056 453Q4073 466 4106 466Q4129 466 4138 460Q4147 455 4147 440Q4147 415 4122 303Q4094 175 4094 145Q4094 126 4102 115Q4110 105 4123 105Q4143 105 4170 129Q4198 154 4244 209Q4256 223 4271 223Q4284 223 4291 211Q4299 199 4299 178Q4299 138 4280 116Q4237 63 4187 29Q4138 -5 4075 -5Q4027 -5 4004 32Q3982 69 3982 136Q3965 68 3931 31Q3897 -5 3858 -5ZM4289 -5Q4251 -5 4235 35Q4220 75 4220 163Q4220 293 4257 410Q4266 439 4286 452Q4307 466 4344 466Q4364 466 4372 461Q4380 456 4380 442Q4380 426 4365 370Q4355 330 4349 300Q4343 270 4339 226Q4372 312 4413 366Q4454 420 4493 443Q4533 466 4566 466Q4631 466 4631 401Q4631 388 4622 338Q4614 298 4614 288Q4614 253 4639 253Q4667 253 4711 297Q4724 310 4738 310Q4751 310 4758 298Q4766 287 4766 268Q4766 231 4746 210Q4718 181 4680 160Q4643 140 4601 140Q4548 140 4520 167Q4493 194 4493 240Q4493 255 4496 270Q4498 290 4498 297Q4498 313 4487 313Q4472 313 4447 279Q4423 246 4399 191Q4375 136 4360 75Q4349 28 4334 11Q4320 -5 4289 -5ZM5384 223Q5397 223 5404 211Q5412 199 5412 178Q5412 138 5393 116Q5350 63 5299 29Q5248 -5 5182 -5Q4978 -5 4978 282Q4978 326 4981 371L4942 371Q4912 371 4901 382Q4891 393 4891 417Q4891 473 4936 473L4993 473Q5010 583 5045 674Q5080 765 5129 819Q5179 873 5236 873Q5278 873 5302 836Q5326 799 5326 743Q5326 588 5196 473L5308 473Q5324 473 5331 466Q5338 459 5338 440Q5338 371 5225 371L5103 371Q5101 321 5101 293Q5101 189 5125 147Q5150 105 5203 105Q5246 105 5279 131Q5312 157 5357 209Q5369 223 5384 223ZM5209 777Q5194 777 5175 739Q5157 702 5140 635Q5124 569 5113 488Q5172 539 5201 602Q5231 666 5231 718Q5231 777 5209 777ZM5886 223Q5899 223 5906 211Q5914 199 5914 178Q5914 138 5895 116Q5849 63 5800 29Q5752 -5 5690 -5Q5639 -5 5613 24Q5587 54 5587 110Q5587 138 5601 210Q5614 273 5614 297Q5614 313 5603 313Q5590 313 5566 279Q5542 246 5518 191Q5494 136 5479 75Q5460 -5 5385 -5Q5355 -5 5345 16Q5336 38 5336 94Q5336 126 5337 145L5338 225Q5338 379 5369 546Q5401 713 5462 826Q5524 940 5610 940Q5656 940 5684 900Q5713 861 5713 798Q5713 697 5654 588Q5595 480 5462 335Q5459 283 5459 228Q5492 313 5532 366Q5573 420 5612 443Q5652 466 5685 466Q5750 466 5750 401Q5750 362 5728 260Q5709 173 5709 145Q5709 105 5738 105Q5758 105 5785 129Q5813 154 5859 209Q5871 223 5886 223ZM5589 841Q5571 841 5549 789Q5527 738 5506 650Q5486 563 5473 460Q5535 533 5575 619Q5616 705 5616 775Q5616 807 5609 824Q5602 841 5589 841ZM6343 307Q6356 307 6363 294Q6370 281 6370 261Q6370 213 6341 204Q6281 183 6209 180Q6190 96 6134 45Q6078 -5 6007 -5Q5947 -5 5904 24Q5862 53 5840 101Q5818 149 5818 205Q5818 281 5847 340Q5876 400 5927 433Q5978 467 6040 467Q6116 467 6162 414Q6209 362 6217 285Q6264 288 6329 305Q6337 307 6343 307ZM6015 101Q6047 101 6070 127Q6094 153 6102 202Q6071 223 6054 257Q6038 291 6038 329Q6038 345 6041 361L6036 361Q5996 361 5969 322Q5943 284 5943 214Q5943 159 5964 130Q5986 101 6015 101ZM6386 -5Q6341 -5 6312 36Q6284 78 6284 140Q6284 215 6294 277Q6304 340 6327 410Q6337 440 6355 453Q6373 466 6412 466Q6434 466 6442 459Q6451 452 6451 438Q6451 430 6440 384Q6430 347 6424 317Q6404 212 6404 177Q6404 156 6409 147Q6414 139 6425 139Q6440 139 6462 169Q6485 199 6510 260Q6536 321 6560 410Q6568 440 6584 453Q6601 466 6634 466Q6657 466 6666 460Q6675 455 6675 440Q6675 415 6650 303Q6622 175 6622 145Q6622 126 6630 115Q6638 105 6651 105Q6671 105 6698 129Q6726 154 6772 209Q6784 223 6799 223Q6812 223 6819 211Q6827 199 6827 178Q6827 138 6808 116Q6765 63 6715 29Q6666 -5 6603 -5Q6555 -5 6532 32Q6510 69 6510 136Q6493 68 6459 31Q6425 -5 6386 -5ZM7258 221Q7271 221 7278 208Q7286 196 7286 177Q7286 154 7279 141Q7272 128 7257 118Q7171 60 7131 32L7067 -11Q7029 -218 6967 -337Q6906 -455 6811 -455Q6760 -455 6728 -424Q6696 -392 6696 -341Q6696 -270 6752 -189Q6808 -107 6962 12L6968 51Q6951 24 6923 9Q6896 -5 6869 -5Q6807 -5 6770 40Q6733 85 6733 158Q6733 238 6770 309Q6807 381 6868 424Q6930 468 6999 468Q7021 468 7028 459Q7036 451 7041 429Q7060 433 7085 433Q7110 433 7120 425Q7131 418 7131 396Q7131 384 7130 377Q7126 346 7105 220Q7101 196 7096 167Q7092 139 7087 107Q7164 167 7235 213Q7248 221 7258 221ZM6905 96Q6928 96 6949 124Q6970 152 6979 204L7011 375Q6970 374 6935 343Q6900 313 6879 263Q6858 213 6858 157Q6858 126 6870 111Q6883 96 6905 96ZM6822 -358Q6847 -358 6878 -298Q6910 -238 6939 -107Q6862 -173 6828 -226Q6794 -279 6794 -319Q6794 -336 6800 -347Q6807 -358 6822 -358ZM7780 223Q7793 223 7800 211Q7808 199 7808 178Q7808 138 7789 116Q7743 63 7694 29Q7646 -5 7584 -5Q7533 -5 7507 24Q7481 54 7481 110Q7481 138 7495 210Q7508 273 7508 297Q7508 313 7497 313Q7484 313 7460 279Q7436 246 7412 191Q7388 136 7373 75Q7354 -5 7279 -5Q7249 -5 7239 16Q7230 38 7230 94Q7230 126 7231 145L7232 225Q7232 379 7263 546Q7295 713 7356 826Q7418 940 7504 940Q7550 940 7578 900Q7607 861 7607 798Q7607 697 7548 588Q7489 480 7356 335Q7353 283 7353 228Q7386 313 7426 366Q7467 420 7506 443Q7546 466 7579 466Q7644 466 7644 401Q7644 362 7622 260Q7603 173 7603 145Q7603 105 7632 105Q7652 105 7679 129Q7707 154 7753 209Q7765 223 7780 223ZM7483 841Q7465 841 7443 789Q7421 738 7400 650Q7380 563 7367 460Q7429 533 7469 619Q7510 705 7510 775Q7510 807 7503 824Q7496 841 7483 841ZM8173 223Q8186 223 8193 211Q8201 199 8201 178Q8201 138 8182 116Q8139 63 8088 29Q8037 -5 7971 -5Q7767 -5 7767 282Q7767 326 7770 371L7731 371Q7701 371 7690 382Q7680 393 7680 417Q7680 473 7725 473L7782 473Q7799 583 7834 674Q7869 765 7918 819Q7968 873 8025 873Q8067 873 8091 836Q8115 799 8115 743Q8115 588 7985 473L8097 473Q8113 473 8120 466Q8127 459 8127 440Q8127 371 8014 371L7892 371Q7890 321 7890 293Q7890 189 7914 147Q7939 105 7992 105Q8035 105 8068 131Q8101 157 8146 209Q8158 223 8173 223ZM7998 777Q7983 777 7964 739Q7946 702 7929 635Q7913 569 7902 488Q7961 539 7990 602Q8020 666 8020 718Q8020 777 7998 777ZM8306 -27Q8254 -27 8226 -3Q8199 21 8199 51Q8199 77 8218 96Q8237 115 8274 115Q8287 115 8304 112Q8322 110 8331 109Q8330 135 8319 158Q8309 181 8293 202Q8277 224 8263 240Q8232 181 8201 142Q8171 103 8135 68Q8117 50 8097 50Q8081 50 8071 61Q8061 73 8061 90Q8061 110 8075 127L8088 143Q8143 211 8171 255Q8188 284 8211 332Q8234 381 8256 433Q8275 477 8335 477Q8363 477 8374 472Q8385 467 8385 456Q8385 450 8381 437Q8377 424 8370 411Q8352 375 8352 350Q8352 335 8362 317Q8373 299 8395 272Q8427 230 8443 200Q8460 171 8460 136Q8460 126 8458 108Q8507 127 8573 209Q8585 223 8600 223Q8613 223 8620 211Q8628 199 8628 178Q8628 140 8609 116Q8559 54 8513 31Q8468 9 8401 7Q8361 -27 8306 -27Z" fill="#C65B7C" style=""></path></g></g></g></svg>
